<?xml version="1.0" encoding="UTF-8" standalone="no"?>
<svg
   xmlns:dc="http://purl.org/dc/elements/1.1/"
   xmlns:cc="http://creativecommons.org/ns#"
   xmlns:rdf="http://www.w3.org/1999/02/22-rdf-syntax-ns#"
   xmlns:svg="http://www.w3.org/2000/svg"
   xmlns="http://www.w3.org/2000/svg"
   xmlns:sodipodi="http://sodipodi.sourceforge.net/DTD/sodipodi-0.dtd"
   xmlns:inkscape="http://www.inkscape.org/namespaces/inkscape"
   width="444.23508"
   height="124.26248"
   version="1.1"
   id="svg3712"
   sodipodi:docname="cat - Copy.svg"
   inkscape:version="0.92.2 (5c3e80d, 2017-08-06)">
  <metadata
     id="metadata3716">
    <rdf:RDF>
      <cc:Work
         rdf:about="">
        <dc:format>image/svg+xml</dc:format>
        <dc:type
           rdf:resource="http://purl.org/dc/dcmitype/StillImage" />
        <dc:title />
      </cc:Work>
    </rdf:RDF>
  </metadata>
  <sodipodi:namedview
     pagecolor="#ffffff"
     bordercolor="#666666"
     borderopacity="1"
     objecttolerance="10"
     gridtolerance="10"
     guidetolerance="10"
     inkscape:pageopacity="0"
     inkscape:pageshadow="2"
     inkscape:window-width="1920"
     inkscape:window-height="1027"
     id="namedview3714"
     showgrid="false"
     inkscape:zoom="2"
     inkscape:cx="158.21788"
     inkscape:cy="77.946926"
     inkscape:window-x="-8"
     inkscape:window-y="-8"
     inkscape:window-maximized="1"
     inkscape:current-layer="svg3712" />
  <defs
     id="SvgjsDefs1635" />
  <g
     id="main_text"
     rel="mainfill"
     name="main_text"
     feature="main_text"
     groupname="main_text"
     transform="matrix(4.9908257,0,0,4.9908257,136.70041,-32.757105)"
     style="fill:#000000">
    <path
       d="m 10.18,17.18 h 1.94 v 6.48 q -0.24,0.08 -0.69,0.18 -0.45,0.1 -1.04,0.2 Q 9.8,24.14 9.1,24.21 8.4,24.28 7.68,24.28 6.22,24.28 5.02,23.8 3.82,23.32 2.96,22.4 2.1,21.48 1.63,20.14 1.16,18.8 1.16,17.06 q 0,-1.74 0.53,-3.09 0.53,-1.35 1.43,-2.27 0.9,-0.92 2.11,-1.4 1.21,-0.48 2.59,-0.48 0.94,0 1.67,0.12 0.73,0.12 1.25,0.28 0.52,0.16 0.85,0.32 0.33,0.16 0.45,0.24 L 11.42,12.4 Q 10.84,12.02 9.88,11.77 8.92,11.52 7.92,11.52 6.86,11.52 5.99,11.9 5.12,12.28 4.51,13 3.9,13.72 3.56,14.75 q -0.34,1.03 -0.34,2.31 0,1.24 0.29,2.26 0.29,1.02 0.88,1.75 0.59,0.73 1.46,1.13 0.87,0.4 2.05,0.4 0.84,0 1.43,-0.09 0.59,-0.09 0.85,-0.17 z M 16.9,24 H 15.04 V 13.6 H 16.9 Z M 15.96,11.72 q -0.5,0 -0.85,-0.33 -0.35,-0.33 -0.35,-0.89 0,-0.56 0.35,-0.89 0.35,-0.33 0.85,-0.33 0.5,0 0.85,0.33 0.35,0.33 0.35,0.89 0,0.56 -0.35,0.89 -0.35,0.33 -0.85,0.33 z m 5.88,1.88 h 3.94 v 1.56 h -3.94 v 4.8 q 0,0.78 0.12,1.29 0.12,0.51 0.36,0.8 0.24,0.29 0.6,0.41 0.36,0.12 0.84,0.12 0.84,0 1.35,-0.19 0.51,-0.19 0.71,-0.27 l 0.36,1.54 q -0.28,0.14 -0.98,0.35 -0.7,0.21 -1.6,0.21 -1.06,0 -1.75,-0.27 -0.69,-0.27 -1.11,-0.81 -0.42,-0.54 -0.59,-1.33 -0.17,-0.79 -0.17,-1.83 V 10.7 l 1.86,-0.32 z m 12.38,10.7 q -1.46,0 -2.66,-0.48 -1.2,-0.48 -2.06,-1.4 -0.86,-0.92 -1.33,-2.27 -0.47,-1.35 -0.47,-3.09 0,-1.74 0.53,-3.09 0.53,-1.35 1.43,-2.27 0.9,-0.92 2.1,-1.4 1.2,-0.48 2.56,-0.48 0.86,0 1.55,0.12 0.69,0.12 1.2,0.28 0.51,0.16 0.83,0.32 0.32,0.16 0.44,0.24 l -0.56,1.6 q -0.18,-0.12 -0.52,-0.26 -0.34,-0.14 -0.77,-0.28 -0.43,-0.14 -0.94,-0.23 -0.51,-0.09 -1.03,-0.09 -1.1,0 -1.98,0.38 -0.88,0.38 -1.5,1.1 -0.62,0.72 -0.95,1.75 -0.33,1.03 -0.33,2.31 0,1.24 0.29,2.26 0.29,1.02 0.87,1.75 0.58,0.73 1.45,1.13 0.87,0.4 2.03,0.4 1.34,0 2.22,-0.28 0.88,-0.28 1.32,-0.5 l 0.5,1.6 q -0.14,0.1 -0.5,0.25 -0.36,0.15 -0.9,0.29 -0.54,0.14 -1.26,0.24 -0.72,0.1 -1.56,0.1 z M 42.4,24 H 40.54 V 13.6 H 42.4 Z M 41.46,11.72 q -0.5,0 -0.85,-0.33 -0.35,-0.33 -0.35,-0.89 0,-0.56 0.35,-0.89 0.35,-0.33 0.85,-0.33 0.5,0 0.85,0.33 0.35,0.33 0.35,0.89 0,0.56 -0.35,0.89 -0.35,0.33 -0.85,0.33 z m 5.88,1.88 h 3.94 v 1.56 h -3.94 v 4.8 q 0,0.78 0.12,1.29 0.12,0.51 0.36,0.8 0.24,0.29 0.6,0.41 0.36,0.12 0.84,0.12 0.84,0 1.35,-0.19 0.51,-0.19 0.71,-0.27 l 0.36,1.54 q -0.28,0.14 -0.98,0.35 -0.7,0.21 -1.6,0.21 -1.06,0 -1.75,-0.27 -0.69,-0.27 -1.11,-0.81 -0.42,-0.54 -0.59,-1.33 -0.17,-0.79 -0.17,-1.83 V 10.7 l 1.86,-0.32 z m 5.08,12.34 q 0.22,0.1 0.57,0.19 0.35,0.09 0.69,0.09 1.1,0 1.72,-0.49 0.62,-0.49 1.12,-1.59 -1.26,-2.4 -2.35,-5.09 -1.09,-2.69 -1.81,-5.45 h 2 q 0.22,0.9 0.53,1.94 0.31,1.04 0.69,2.14 0.38,1.1 0.82,2.2 0.44,1.1 0.92,2.12 0.76,-2.1 1.32,-4.16 0.56,-2.06 1.06,-4.24 h 1.92 q -0.72,2.94 -1.6,5.65 -0.88,2.71 -1.9,5.07 -0.4,0.9 -0.83,1.55 -0.43,0.65 -0.95,1.07 -0.52,0.42 -1.17,0.62 -0.65,0.2 -1.47,0.2 -0.22,0 -0.46,-0.03 Q 53,27.7 52.77,27.65 52.54,27.6 52.35,27.54 52.16,27.48 52.08,27.44 Z"
       id="path3700"
       inkscape:connector-curvature="0" />
  </g>
  <g
     id="SvgjsG1637"
     rel="mainfill"
     name="symbol"
     feature="symbol"
     transform="matrix(1.5525919,0,0,1.5525919,-8.3871749,-15.498738)"
     style="fill:#000000">
    <path
       d="m 42.693,28.452 c -1.083,-0.588 -2.419,-0.851 -3.752,-0.586 -1.337,0.267 -2.52,1.043 -3.267,2.125 -0.747,1.064 -1.012,2.534 -0.408,3.619 0.671,-1.018 1.376,-1.557 2.093,-1.979 0.714,-0.414 1.45,-0.68 2.164,-0.822 0.724,-0.14 1.536,-0.178 2.435,-0.115 0.909,0.059 1.876,0.218 3.07,0.431 -0.379,-1.165 -1.256,-2.077 -2.335,-2.673 z"
       id="path3703"
       inkscape:connector-curvature="0" />
    <path
       d="m 29.779,35.543 c -0.208,-1.224 -1.335,-2.205 -2.583,-2.566 -1.26,-0.376 -2.668,-0.24 -3.878,0.389 -1.205,0.628 -2.082,1.669 -2.559,2.806 -0.468,1.139 -0.581,2.4 -0.148,3.545 0.798,-0.914 1.453,-1.643 2.125,-2.258 0.662,-0.612 1.319,-1.09 1.97,-1.435 0.646,-0.336 1.386,-0.589 2.202,-0.714 0.823,-0.12 1.711,-0.141 2.871,0.233 z"
       id="path3705"
       inkscape:connector-curvature="0" />
    <path
       d="m 39.629,41.661 c -0.759,0.042 -1.509,-0.074 -2.017,-0.382 -0.513,-0.285 -0.807,-0.726 -0.826,-1.052 0.022,-0.082 0.047,-0.157 0.062,-0.249 0.136,-0.831 0.188,-1.676 0.154,-2.529 -0.007,-0.174 -0.019,-0.353 -0.1,-0.508 -0.171,-0.327 -0.591,-0.438 -0.959,-0.421 -1.613,0.075 -3.695,0.638 -4.506,2.192 -0.103,0.197 -0.185,0.414 -0.17,0.636 0.031,0.454 0.451,0.782 0.87,0.959 0.452,0.19 1.065,0.488 1.699,0.718 0.195,0.628 0.197,1.388 -0.062,2.144 -0.268,0.798 -0.781,1.578 -1.476,2.168 -0.687,0.604 -1.565,1 -2.541,1.101 -0.971,0.101 -2.012,-0.079 -2.94,-0.569 0.785,0.696 1.813,1.167 2.922,1.319 1.104,0.159 2.323,-0.045 3.371,-0.59 1.059,-0.531 1.986,-1.355 2.668,-2.407 0.193,-0.296 0.356,-0.619 0.5,-0.956 0.213,0.076 0.426,0.14 0.634,0.182 0.537,0.114 1.116,0.13 1.613,0.056 0.498,-0.062 0.98,-0.179 1.435,-0.35 1.824,-0.665 3.232,-2.116 3.755,-3.771 -0.979,1.436 -2.579,2.228 -4.086,2.309 z"
       id="path3707"
       inkscape:connector-curvature="0" />
    <path
       d="m 93.474,61.265 c -0.896,-0.759 -2.116,-1.086 -3.731,-0.982 -5.964,0.355 -10.339,4.007 -14.57,7.539 -2.087,1.741 -4.059,3.387 -6.186,4.633 -2.123,1.243 -4.403,2.272 -6.794,3.098 1.204,-3.119 2.018,-6.684 2.45,-10.801 1.434,-13.689 -1.712,-32.853 -14.874,-43.618 0.066,-2.987 0.087,-6.045 -0.302,-9.082 -0.162,-1.273 -0.844,-1.769 -1.389,-1.96 -0.505,-0.177 -1.298,-0.228 -2.211,0.548 -1.895,1.61 -3.62,3.419 -5.157,5.369 -4.727,-1.631 -9.734,-1.952 -14.273,-0.794 -5.529,1.412 -9.828,4.87 -12.437,9.998 -1.657,0.352 -2.922,0.217 -4.73,0.021 L 8.253,25.128 c -1.206,-0.124 -2.06,0.216 -2.543,1.004 -0.614,1.001 -0.146,2.033 0.007,2.372 1.347,2.98 3.087,5.769 5.168,8.294 -0.103,1.006 -0.188,2.043 -0.242,3.142 -0.863,17.743 5.1,33.402 16.36,42.96 3.338,2.833 9.566,7.118 16.697,7.118 1.161,0 2.348,-0.113 3.548,-0.366 3.378,-0.709 6.574,-2.517 9.242,-5.148 0.977,-0.097 1.973,-0.13 3.013,-0.162 1.289,-0.04 2.622,-0.081 3.958,-0.26 2.755,-0.369 5.525,-1.343 7.872,-2.248 8.109,-3.126 15.872,-8.518 21.859,-15.184 0.998,-1.111 1.467,-2.207 1.396,-3.259 -0.054,-0.818 -0.44,-1.553 -1.114,-2.126 z M 46.652,13.96 c 0.137,1.654 0.162,3.333 0.149,5.007 -1.026,-0.659 -2.084,-1.252 -3.17,-1.768 0.938,-1.129 1.926,-2.221 3.021,-3.239 z M 8.896,28.21 8.948,28.216 c 1.316,0.142 2.468,0.263 3.722,0.193 -0.191,0.544 -0.389,1.081 -0.551,1.648 -0.233,0.818 -0.432,1.682 -0.611,2.573 C 10.531,31.222 9.65,29.75 8.896,28.21 Z m 37.736,58.507 c -7.319,1.532 -14.225,-3.164 -17.687,-6.104 -3.563,-3.025 -6.544,-6.728 -8.918,-10.937 0.316,-0.132 0.945,-0.141 1.635,0.035 l 2.899,0.73 c 1.963,0.487 4.016,0.894 6.026,0.787 C 28.614,70.83 26.84,69.973 25.098,69.04 l -2.661,-1.442 c -0.484,-0.242 -1.019,-0.483 -1.675,-0.625 -0.589,-0.13 -1.341,-0.144 -2.084,0.114 -1.548,-3.218 -2.759,-6.693 -3.612,-10.375 0.663,-0.356 1.509,-0.538 2.455,-0.551 1.141,-0.022 2.369,0.151 3.63,0.303 2.543,0.305 5.091,0.379 7.603,0.227 C 26.262,56.343 23.822,55.774 21.475,55 20.293,54.613 19.082,54.174 17.726,53.921 16.747,53.737 15.626,53.666 14.493,53.905 13.714,49.52 13.408,44.89 13.642,40.084 c 0.175,-3.593 0.621,-6.604 1.363,-9.205 0.438,-1.535 0.993,-2.972 1.649,-4.27 2.205,-4.358 5.845,-7.295 10.528,-8.49 1.542,-0.394 3.167,-0.585 4.828,-0.585 4.708,0 9.698,1.54 13.842,4.391 7.083,4.874 11.413,12.25 13.776,20.112 -1.108,0.238 -2.087,0.739 -2.896,1.287 -1.143,0.772 -2.078,1.658 -3.008,2.484 -1.845,1.646 -3.855,3.14 -6.002,4.452 2.365,-0.862 4.672,-1.944 6.883,-3.238 1.096,-0.642 2.153,-1.29 3.208,-1.725 0.913,-0.383 1.798,-0.55 2.573,-0.461 0.821,3.419 1.295,6.882 1.484,10.232 -0.848,0.026 -1.585,0.365 -2.104,0.742 -0.544,0.392 -0.939,0.826 -1.287,1.241 l -1.866,2.383 c -1.227,1.55 -2.512,3.043 -4.163,4.194 1.886,-0.703 3.607,-1.895 5.213,-3.124 l 2.368,-1.825 c 0.733,-0.569 1.5,-0.812 1.726,-0.623 0.064,0.054 0.135,0.1 0.207,0.144 0.009,2.166 -0.094,4.261 -0.301,6.235 -0.602,5.742 -1.96,10.306 -4.151,13.95 -0.723,1.202 -1.552,2.292 -2.452,3.274 -0.03,0.005 -0.061,0.007 -0.091,0.012 l 0.011,0.07 c -2.379,2.569 -5.28,4.332 -8.348,4.976 z m 44.329,-22.07 c -5.676,6.319 -13.029,11.43 -20.706,14.389 -2.184,0.842 -4.746,1.746 -7.191,2.074 -1.184,0.157 -2.384,0.195 -3.654,0.234 -0.087,0.003 -0.175,0.006 -0.262,0.009 0.323,-0.46 0.636,-0.93 0.931,-1.42 0.139,-0.232 0.265,-0.478 0.398,-0.716 3.57,-0.978 6.945,-2.371 10.026,-4.176 0.953,-0.558 1.869,-1.197 2.769,-1.865 -0.318,0.735 -0.606,1.479 -0.851,2.234 0.614,-1.115 1.311,-2.173 2.076,-3.168 0.881,-0.696 1.748,-1.41 2.598,-2.12 0.903,-0.754 1.795,-1.496 2.691,-2.201 -0.624,1.573 -1.077,3.179 -1.471,4.789 0.737,-1.616 1.529,-3.208 2.485,-4.66 0.454,-0.692 0.95,-1.347 1.485,-1.952 0.911,-0.602 1.842,-1.134 2.805,-1.573 -0.457,1.111 -0.813,2.248 -1.064,3.393 0.841,-1.529 1.868,-2.92 3.031,-4.134 0.916,-0.27 1.866,-0.45 2.865,-0.51 0.794,-0.046 1.338,0.045 1.611,0.276 0.037,0.031 0.056,0.054 0.063,0.057 -0.006,0.109 -0.126,0.474 -0.635,1.04 z"
       id="path3709"
       inkscape:connector-curvature="0" />
  </g>
</svg>
