<svg width="361" height="139"><defs id="SvgjsDefs1635"></defs><g id="main_text" rel="mainfill" name="main_text" feature="main_text" xmlns:name="mainText_mainfill" groupname="main_text" fill="#000000" transform="translate(164.11170702421452, -55.627736641985194) scale(6.260396237742646)"><path d="M5.6 28.180000000000003 l-0.5 -0.9 q-0.24 0.48 -0.78 0.73 t-1.22 0.25 q-0.54 0 -0.99 -0.14 t-0.78 -0.47 t-0.52 -0.87 t-0.19 -1.32 l0 -11.2 q0 -1.38 0.64 -2.1 t1.96 -0.72 t1.91 0.72 t0.59 2.1 l0 2.9 l-1.36 0 l0 -2.9 q0 -0.64 -0.26 -0.96 t-0.88 -0.32 q-0.58 0 -0.83 0.32 t-0.25 0.96 l0 11.2 q0 0.64 0.3 0.97 t0.76 0.33 q1.08 0 1.18 -1.18 l0 -3.74 l-1.26 0 l0 -1.44 l2.72 0 l0 7.78 l-0.24 0 z M7.220000000000001 14.120000000000001 l0 -2.5 l1.38 0 l0 2.5 l-1.38 0 z M7.220000000000001 28.080000000000002 l0 -12.38 l1.38 0 l0 12.38 l-1.38 0 z M12.98 28.16 q-0.1 0.04 -0.29 0.07 t-0.35 0.03 q-1.1 0 -1.64 -0.68 t-0.54 -1.88 l0 -8.78 l-0.58 0 l0 -1.22 l0.58 0 l0 -3.92 l1.38 0 l0 3.92 l1.4 0 l0 1.22 l-1.4 0 l0 8.78 q0 0.76 0.27 1.07 t0.91 0.31 l0.13 0 t0.13 -0.02 l0 1.1 z M17.46 22.040000000000003 l1.38 0 l0 3.4 q0 1.44 -0.57 2.13 t-1.83 0.69 q-2.62 0 -2.62 -2.78 l0 -11.2 q0 -2.84 2.62 -2.84 q2.4 0 2.4 2.8 l0 2.92 l-1.38 0 l0 -2.9 q0 -0.66 -0.22 -0.97 t-0.8 -0.31 q-1.08 0 -1.08 1.28 l0 11.2 q0 1.3 1.08 1.3 q0.56 0 0.79 -0.32 t0.23 -0.98 l0 -3.42 z M20.160000000000004 14.120000000000001 l0 -2.5 l1.38 0 l0 2.5 l-1.38 0 z M20.160000000000004 28.080000000000002 l0 -12.38 l1.38 0 l0 12.38 l-1.38 0 z M25.920000000000005 28.16 q-0.1 0.04 -0.29 0.07 t-0.35 0.03 q-1.1 0 -1.64 -0.68 t-0.54 -1.88 l0 -8.78 l-0.58 0 l0 -1.22 l0.58 0 l0 -3.92 l1.38 0 l0 3.92 l1.4 0 l0 1.22 l-1.4 0 l0 8.78 q0 0.76 0.27 1.07 t0.91 0.31 l0.13 0 t0.13 -0.02 l0 1.1 z M26.520000000000003 29.48 q0.34 0.1 0.68 0.1 q0.42 0 0.61 -0.34 t0.29 -0.92 l0.08 -0.5 l-1.82 -12.12 l1.44 0 q0.1 0.7 0.21 1.56 t0.21 1.78 t0.21 1.84 t0.19 1.72 t0.15 1.44 t0.11 0.98 q0.04 -0.34 0.11 -0.98 t0.17 -1.44 t0.21 -1.72 t0.23 -1.84 t0.25 -1.78 t0.25 -1.56 l1.32 0 l-1.88 12.54 q-0.1 0.66 -0.24 1.16 t-0.39 0.85 t-0.65 0.53 t-1 0.18 q-0.34 0 -0.74 -0.1 l0 -1.38 z"></path></g><g id="SvgjsG1637" rel="mainfill" name="symbol" feature="symbol" xmlns:name="symbol_mainfill" fill="#000000" transform="translate(6.6123648609077605, -0.49559492435334285) scale(1.5525918984870668)"><path d="M42.693,28.452c-1.083-0.588-2.419-0.851-3.752-0.586c-1.337,0.267-2.52,1.043-3.267,2.125  c-0.747,1.064-1.012,2.534-0.408,3.619c0.671-1.018,1.376-1.557,2.093-1.979c0.714-0.414,1.45-0.68,2.164-0.822  c0.724-0.14,1.536-0.178,2.435-0.115c0.909,0.059,1.876,0.218,3.07,0.431C44.649,29.96,43.772,29.048,42.693,28.452z"></path><path d="M29.779,35.543c-0.208-1.224-1.335-2.205-2.583-2.566c-1.26-0.376-2.668-0.24-3.878,0.389  c-1.205,0.628-2.082,1.669-2.559,2.806c-0.468,1.139-0.581,2.4-0.148,3.545c0.798-0.914,1.453-1.643,2.125-2.258  c0.662-0.612,1.319-1.09,1.97-1.435c0.646-0.336,1.386-0.589,2.202-0.714C27.731,35.19,28.619,35.169,29.779,35.543z"></path><path d="M39.629,41.661c-0.759,0.042-1.509-0.074-2.017-0.382c-0.513-0.285-0.807-0.726-0.826-1.052  c0.022-0.082,0.047-0.157,0.062-0.249c0.136-0.831,0.188-1.676,0.154-2.529c-0.007-0.174-0.019-0.353-0.1-0.508  c-0.171-0.327-0.591-0.438-0.959-0.421c-1.613,0.075-3.695,0.638-4.506,2.192c-0.103,0.197-0.185,0.414-0.17,0.636  c0.031,0.454,0.451,0.782,0.87,0.959c0.452,0.19,1.065,0.488,1.699,0.718c0.195,0.628,0.197,1.388-0.062,2.144  c-0.268,0.798-0.781,1.578-1.476,2.168c-0.687,0.604-1.565,1-2.541,1.101c-0.971,0.101-2.012-0.079-2.94-0.569  c0.785,0.696,1.813,1.167,2.922,1.319c1.104,0.159,2.323-0.045,3.371-0.59c1.059-0.531,1.986-1.355,2.668-2.407  c0.193-0.296,0.356-0.619,0.5-0.956c0.213,0.076,0.426,0.14,0.634,0.182c0.537,0.114,1.116,0.13,1.613,0.056  c0.498-0.062,0.98-0.179,1.435-0.35c1.824-0.665,3.232-2.116,3.755-3.771C42.736,40.788,41.136,41.58,39.629,41.661z"></path><path d="M93.474,61.265c-0.896-0.759-2.116-1.086-3.731-0.982c-5.964,0.355-10.339,4.007-14.57,7.539  c-2.087,1.741-4.059,3.387-6.186,4.633c-2.123,1.243-4.403,2.272-6.794,3.098c1.204-3.119,2.018-6.684,2.45-10.801  c1.434-13.689-1.712-32.853-14.874-43.618c0.066-2.987,0.087-6.045-0.302-9.082c-0.162-1.273-0.844-1.769-1.389-1.96  c-0.505-0.177-1.298-0.228-2.211,0.548c-1.895,1.61-3.62,3.419-5.157,5.369c-4.727-1.631-9.734-1.952-14.273-0.794  c-5.529,1.412-9.828,4.87-12.437,9.998c-1.657,0.352-2.922,0.217-4.73,0.021l-1.017-0.106c-1.206-0.124-2.06,0.216-2.543,1.004  c-0.614,1.001-0.146,2.033,0.007,2.372c1.347,2.98,3.087,5.769,5.168,8.294c-0.103,1.006-0.188,2.043-0.242,3.142  C9.78,57.683,15.743,73.342,27.003,82.9c3.338,2.833,9.566,7.118,16.697,7.118c1.161,0,2.348-0.113,3.548-0.366  c3.378-0.709,6.574-2.517,9.242-5.148c0.977-0.097,1.973-0.13,3.013-0.162c1.289-0.04,2.622-0.081,3.958-0.26  c2.755-0.369,5.525-1.343,7.872-2.248c8.109-3.126,15.872-8.518,21.859-15.184c0.998-1.111,1.467-2.207,1.396-3.259  C94.534,62.573,94.148,61.838,93.474,61.265z M46.652,13.96c0.137,1.654,0.162,3.333,0.149,5.007  c-1.026-0.659-2.084-1.252-3.17-1.768C44.569,16.07,45.557,14.978,46.652,13.96z M8.896,28.21l0.052,0.006  c1.316,0.142,2.468,0.263,3.722,0.193c-0.191,0.544-0.389,1.081-0.551,1.648c-0.233,0.818-0.432,1.682-0.611,2.573  C10.531,31.222,9.65,29.75,8.896,28.21z M46.632,86.717c-7.319,1.532-14.225-3.164-17.687-6.104  c-3.563-3.025-6.544-6.728-8.918-10.937c0.316-0.132,0.945-0.141,1.635,0.035l2.899,0.73c1.963,0.487,4.016,0.894,6.026,0.787  c-1.973-0.398-3.747-1.255-5.489-2.188l-2.661-1.442c-0.484-0.242-1.019-0.483-1.675-0.625c-0.589-0.13-1.341-0.144-2.084,0.114  c-1.548-3.218-2.759-6.693-3.612-10.375c0.663-0.356,1.509-0.538,2.455-0.551c1.141-0.022,2.369,0.151,3.63,0.303  c2.543,0.305,5.091,0.379,7.603,0.227c-2.492-0.348-4.932-0.917-7.279-1.691c-1.182-0.387-2.393-0.826-3.749-1.079  c-0.979-0.184-2.1-0.255-3.233-0.016c-0.779-4.385-1.085-9.015-0.851-13.821c0.175-3.593,0.621-6.604,1.363-9.205  c0.438-1.535,0.993-2.972,1.649-4.27c2.205-4.358,5.845-7.295,10.528-8.49c1.542-0.394,3.167-0.585,4.828-0.585  c4.708,0,9.698,1.54,13.842,4.391c7.083,4.874,11.413,12.25,13.776,20.112c-1.108,0.238-2.087,0.739-2.896,1.287  c-1.143,0.772-2.078,1.658-3.008,2.484c-1.845,1.646-3.855,3.14-6.002,4.452c2.365-0.862,4.672-1.944,6.883-3.238  c1.096-0.642,2.153-1.29,3.208-1.725c0.913-0.383,1.798-0.55,2.573-0.461c0.821,3.419,1.295,6.882,1.484,10.232  c-0.848,0.026-1.585,0.365-2.104,0.742c-0.544,0.392-0.939,0.826-1.287,1.241l-1.866,2.383c-1.227,1.55-2.512,3.043-4.163,4.194  c1.886-0.703,3.607-1.895,5.213-3.124l2.368-1.825c0.733-0.569,1.5-0.812,1.726-0.623c0.064,0.054,0.135,0.1,0.207,0.144  c0.009,2.166-0.094,4.261-0.301,6.235c-0.602,5.742-1.96,10.306-4.151,13.95c-0.723,1.202-1.552,2.292-2.452,3.274  c-0.03,0.005-0.061,0.007-0.091,0.012l0.011,0.07C52.601,84.31,49.7,86.073,46.632,86.717z M90.961,64.647  c-5.676,6.319-13.029,11.43-20.706,14.389c-2.184,0.842-4.746,1.746-7.191,2.074c-1.184,0.157-2.384,0.195-3.654,0.234  c-0.087,0.003-0.175,0.006-0.262,0.009c0.323-0.46,0.636-0.93,0.931-1.42c0.139-0.232,0.265-0.478,0.398-0.716  c3.57-0.978,6.945-2.371,10.026-4.176c0.953-0.558,1.869-1.197,2.769-1.865c-0.318,0.735-0.606,1.479-0.851,2.234  c0.614-1.115,1.311-2.173,2.076-3.168c0.881-0.696,1.748-1.41,2.598-2.12c0.903-0.754,1.795-1.496,2.691-2.201  c-0.624,1.573-1.077,3.179-1.471,4.789c0.737-1.616,1.529-3.208,2.485-4.66c0.454-0.692,0.95-1.347,1.485-1.952  c0.911-0.602,1.842-1.134,2.805-1.573c-0.457,1.111-0.813,2.248-1.064,3.393c0.841-1.529,1.868-2.92,3.031-4.134  c0.916-0.27,1.866-0.45,2.865-0.51c0.794-0.046,1.338,0.045,1.611,0.276c0.037,0.031,0.056,0.054,0.063,0.057  C91.59,63.716,91.47,64.081,90.961,64.647z"></path></g></svg>