<svg width="302" height="102"><defs id="SvgjsDefs1029"></defs><g id="main_text" rel="mainfill" name="main_text" feature="main_text" xmlns:name="mainText_mainfill" groupname="main_text" fill="#624e9f" transform="translate(-5.790137614678899, -36.321100917431195) scale(4.990825688073395)"><path d="M10.18 17.18 l1.94 0 l0 6.48 q-0.24 0.08 -0.69 0.18 t-1.04 0.2 t-1.29 0.17 t-1.42 0.07 q-1.46 0 -2.66 -0.48 t-2.06 -1.4 t-1.33 -2.26 t-0.47 -3.08 t0.53 -3.09 t1.43 -2.27 t2.11 -1.4 t2.59 -0.48 q0.94 0 1.67 0.12 t1.25 0.28 t0.85 0.32 t0.45 0.24 l-0.62 1.62 q-0.58 -0.38 -1.54 -0.63 t-1.96 -0.25 q-1.06 0 -1.93 0.38 t-1.48 1.1 t-0.95 1.75 t-0.34 2.31 q0 1.24 0.29 2.26 t0.88 1.75 t1.46 1.13 t2.05 0.4 q0.84 0 1.43 -0.09 t0.85 -0.17 l0 -5.16 z M16.9 24 l-1.86 0 l0 -10.4 l1.86 0 l0 10.4 z M15.959999999999999 11.72 q-0.5 0 -0.85 -0.33 t-0.35 -0.89 t0.35 -0.89 t0.85 -0.33 t0.85 0.33 t0.35 0.89 t-0.35 0.89 t-0.85 0.33 z M21.84 13.6 l3.94 0 l0 1.56 l-3.94 0 l0 4.8 q0 0.78 0.12 1.29 t0.36 0.8 t0.6 0.41 t0.84 0.12 q0.84 0 1.35 -0.19 t0.71 -0.27 l0.36 1.54 q-0.28 0.14 -0.98 0.35 t-1.6 0.21 q-1.06 0 -1.75 -0.27 t-1.11 -0.81 t-0.59 -1.33 t-0.17 -1.83 l0 -9.28 l1.86 -0.32 l0 3.22 z M34.22 24.3 q-1.46 0 -2.66 -0.48 t-2.06 -1.4 t-1.33 -2.27 t-0.47 -3.09 t0.53 -3.09 t1.43 -2.27 t2.1 -1.4 t2.56 -0.48 q0.86 0 1.55 0.12 t1.2 0.28 t0.83 0.32 t0.44 0.24 l-0.56 1.6 q-0.18 -0.12 -0.52 -0.26 t-0.77 -0.28 t-0.94 -0.23 t-1.03 -0.09 q-1.1 0 -1.98 0.38 t-1.5 1.1 t-0.95 1.75 t-0.33 2.31 q0 1.24 0.29 2.26 t0.87 1.75 t1.45 1.13 t2.03 0.4 q1.34 0 2.22 -0.28 t1.32 -0.5 l0.5 1.6 q-0.14 0.1 -0.5 0.25 t-0.9 0.29 t-1.26 0.24 t-1.56 0.1 z M42.4 24 l-1.86 0 l0 -10.4 l1.86 0 l0 10.4 z M41.46 11.72 q-0.5 0 -0.85 -0.33 t-0.35 -0.89 t0.35 -0.89 t0.85 -0.33 t0.85 0.33 t0.35 0.89 t-0.35 0.89 t-0.85 0.33 z M47.34 13.6 l3.94 0 l0 1.56 l-3.94 0 l0 4.8 q0 0.78 0.12 1.29 t0.36 0.8 t0.6 0.41 t0.84 0.12 q0.84 0 1.35 -0.19 t0.71 -0.27 l0.36 1.54 q-0.28 0.14 -0.98 0.35 t-1.6 0.21 q-1.06 0 -1.75 -0.27 t-1.11 -0.81 t-0.59 -1.33 t-0.17 -1.83 l0 -9.28 l1.86 -0.32 l0 3.22 z M52.42 25.94 q0.22 0.1 0.57 0.19 t0.69 0.09 q1.1 0 1.72 -0.49 t1.12 -1.59 q-1.26 -2.4 -2.35 -5.09 t-1.81 -5.45 l2 0 q0.22 0.9 0.53 1.94 t0.69 2.14 t0.82 2.2 t0.92 2.12 q0.76 -2.1 1.32 -4.16 t1.06 -4.24 l1.92 0 q-0.72 2.94 -1.6 5.65 t-1.9 5.07 q-0.4 0.9 -0.83 1.55 t-0.95 1.07 t-1.17 0.62 t-1.47 0.2 q-0.22 0 -0.46 -0.03 t-0.47 -0.08 t-0.42 -0.11 t-0.27 -0.1 z"></path></g></svg>